<svg width="24" height="24" viewBox="0 0 24 24" fill="none" xmlns="http://www.w3.org/2000/svg">
<path d="M8 7V5C8 4.46957 8.21071 3.96086 8.58579 3.58579C8.96086 3.21071 9.46957 3 10 3H14C14.5304 3 15.0391 3.21071 15.4142 3.58579C15.7893 3.96086 16 4.46957 16 5V7M12 12V12.01M3 13C5.79158 14.4067 8.87403 15.1394 12 15.1394C15.126 15.1394 18.2084 14.4067 21 13M5 21H19C19.5304 21 20.0391 20.7893 20.4142 20.4142C20.7893 20.0391 21 19.5304 21 19V9C21 8.46957 20.7893 7.96086 20.4142 7.58579C20.0391 7.21071 19.5304 7 19 7H5C4.46957 7 3.96086 7.21071 3.58579 7.58579C3.21071 7.96086 3 8.46957 3 9V19C3 19.5304 3.21071 20.0391 3.58579 20.4142C3.96086 20.7893 4.46957 21 5 21Z" stroke="currentColor" stroke-width="1.5" stroke-linecap="round" stroke-linejoin="round"/>
</svg>
