<svg width="37" height="30" viewBox="0 0 37 30" fill="none" xmlns="http://www.w3.org/2000/svg">
<path d="M0 29.4307V8.389L8.5743 0H10.7526V8.71252L2.54918 16.7777V18.5401L2.64183 18.4475L21.5516 0.00100653H23.7762V8.71252L15.5728 16.7777V18.5401C17.3649 16.7782 19.389 14.8004 21.6452 12.6067C23.9014 10.4129 26.1802 8.18817 28.4816 5.93247C30.7834 3.67694 32.7995 1.69945 34.5298 0H36.7545V8.71252L28.55 16.7777V18.5401L36.7535 10.522V21.4136L28.55 29.4307H26.0009V19.234L15.5725 29.4307H13.0236V19.234L2.54993 29.4307H0Z" fill="url(#paint0_linear_541_2658)"/>
<defs>
<linearGradient id="paint0_linear_541_2658" x1="18.3772" y1="4.38552e-07" x2="31.0714" y2="31.7061" gradientUnits="userSpaceOnUse">
<stop stop-color="#6493FF"/>
<stop offset="1" stop-color="#165DFF"/>
</linearGradient>
</defs>
</svg>
