<svg width="163" height="30" viewBox="0 0 163 30" fill="none" xmlns="http://www.w3.org/2000/svg">
<path d="M0 29.4307V8.389L8.5743 0H10.7526V8.71252L2.54918 16.7777V18.5401L2.64183 18.4475L21.5516 0.00100653H23.7762V8.71252L15.5728 16.7777V18.5401C17.3649 16.7783 19.389 14.8004 21.6452 12.6067C23.9014 10.4129 26.1802 8.18817 28.4816 5.93247C30.7834 3.67694 32.7995 1.69945 34.5298 0H36.7545V8.71252L28.55 16.7777V18.5401L36.7535 10.522V21.4136L28.55 29.4307H26.0009V19.234L15.5725 29.4307H13.0236V19.234L2.54993 29.4307H0Z" fill="url(#paint0_linear_463_2429)"/>
<path d="M62.6602 22.6594V6.61049H59.9038L53.3295 20.339H53.2812L46.7795 6.61049H44.0483V22.6594H45.7885V8.54409H45.8368L52.5319 22.6594H54.0305L60.8222 8.39907H60.8706V22.6594H62.6602ZM76.4371 22.6594V11.372H74.8177V17.1728C74.8177 19.8315 73.3675 21.4509 71.0471 21.4509C68.9202 21.4509 67.615 20.0732 67.615 17.7045V11.372H65.9946V17.8979C65.9946 21.0158 67.7822 22.9011 70.7078 22.9011C72.6897 22.9011 74.1399 22.0793 74.9375 20.6291H74.9859L75.0584 22.6594H76.4371ZM85.9842 20.7983H85.9117C85.6921 21.0209 85.4277 21.1942 85.136 21.3067C84.8443 21.4192 84.532 21.4684 84.2198 21.4509C82.9388 21.4509 82.1412 20.5807 82.1412 19.1064V12.7738H85.9359V11.372H82.1402V8.35073H80.835L80.5691 11.372H78.3455V12.7738H80.5208V19.1547C80.5208 21.5465 81.7776 22.9011 84.0254 22.9011C84.705 22.9314 85.3805 22.7813 85.9832 22.466L85.9842 20.7983ZM99.2294 17.5112V16.5685C99.2294 13.2814 96.9815 11.1303 93.5011 11.1303C90.0448 11.1303 87.6278 13.5725 87.6278 17.0278C87.6268 20.5807 90.1646 22.9011 94.1043 22.9011C95.8919 22.9011 97.4639 22.3935 98.4791 21.4992V19.8315H98.4066C97.2948 20.9191 95.8687 21.4509 94.1516 21.4509C91.3479 21.4509 89.4868 19.9282 89.2693 17.5112H99.2294ZM93.5242 12.5805C95.8929 12.5805 97.5123 13.9582 97.7288 16.1093H89.2693C89.6329 14.0065 91.3006 12.5805 93.5242 12.5805ZM109.114 9.80093H113.875V6.61049H100.751V9.80093H105.537V22.6594H109.114V9.80093ZM125.114 22.6594V11.2995H122.481L122.36 12.7738H122.312C121.587 11.6862 120.306 11.0578 118.638 11.0578C115.423 11.0578 113.079 13.5473 113.079 16.9794C113.079 20.4116 115.422 22.9011 118.637 22.9011C120.329 22.9011 121.586 22.2485 122.335 21.1367H122.383L122.481 22.6594H125.114ZM119.169 20.0973C117.453 20.0973 116.268 18.8163 116.268 16.9794C116.268 15.1425 117.452 13.8615 119.169 13.8615C120.86 13.8615 122.045 15.1425 122.045 16.9794C122.045 18.8163 120.86 20.0973 119.169 20.0973ZM133.066 18.8405L135.628 22.6594H139.447L135.17 16.8102L139.206 11.2995H135.555L133.235 14.7558L130.89 11.2995H127.072L131.133 16.8102L126.83 22.6594H130.504L133.066 18.8405ZM151.339 17.777V16.496C151.339 13.1606 149.139 11.0578 145.611 11.0578C142.154 11.0578 139.689 13.4999 139.689 16.9794C139.689 20.4841 142.421 22.9011 146.432 22.9011C148.197 22.9011 149.719 22.5143 150.662 21.8376V18.7912H150.541C149.623 19.6854 148.221 20.1688 146.577 20.1688C144.62 20.1688 143.218 19.3229 142.879 17.777H151.339ZM145.707 13.789C147.206 13.789 148.269 14.4899 148.487 15.8676H142.879C143.194 14.5382 144.354 13.789 145.707 13.789ZM157.72 11.0578C154.843 11.0578 152.982 12.5321 152.982 14.8283C152.982 17.0761 154.118 17.9462 156.995 18.2121C158.59 18.3571 159.073 18.5988 159.073 19.2031C159.073 19.9282 158.469 20.2907 157.235 20.2907C155.471 20.2907 154.117 19.8073 153.223 18.8405H153.078V21.8869C154.046 22.5627 155.496 22.9011 157.381 22.9011C160.306 22.9011 162.046 21.5234 162.046 19.2031C162.046 16.8112 160.863 15.7467 157.842 15.5524C156.343 15.4557 155.956 15.2382 155.956 14.7306C155.956 14.0297 156.561 13.6671 157.794 13.6671C159.269 13.6671 160.429 14.0538 161.178 14.8031H161.299V11.7819C160.403 11.3236 159.097 11.0578 157.72 11.0578Z" fill="white"/>
<defs>
<linearGradient id="paint0_linear_463_2429" x1="18.3772" y1="4.38552e-07" x2="31.0714" y2="31.7061" gradientUnits="userSpaceOnUse">
<stop stop-color="#6493FF"/>
<stop offset="1" stop-color="#165DFF"/>
</linearGradient>
</defs>
</svg>
